<svg width="24" height="24" viewBox="0 0 24 24" fill="none" xmlns="http://www.w3.org/2000/svg">
<path d="M11.9588 15.5C11.8569 15.4999 11.756 15.4793 11.6622 15.4394C11.5684 15.3996 11.4836 15.3413 11.4128 15.268L6.22476 9.93801C6.08051 9.78726 6 9.58666 6 9.37801C6 9.16936 6.08051 8.96876 6.22476 8.81801C6.52476 8.50801 7.01476 8.50801 7.31776 8.81801L11.9578 13.585L16.6808 8.73201C16.9808 8.42201 17.4708 8.42201 17.7708 8.73201C18.0738 9.04201 18.0738 9.54401 17.7728 9.85401L12.5028 15.268C12.4319 15.3412 12.347 15.3994 12.2532 15.4392C12.1595 15.4791 12.0587 15.4998 11.9568 15.5" fill="black"/>
</svg>
