<svg width="375" height="226" viewBox="0 0 375 226" fill="none" xmlns="http://www.w3.org/2000/svg">
<circle cx="369.5" cy="156.5" r="5.5" transform="rotate(180 369.5 156.5)" fill="#D4E9E2"/>
<circle cx="288" cy="106" r="9" fill="#00754A"/>
<circle cx="15.5" cy="15.5" r="15.5" transform="matrix(1 0 0 -1 211 31)" fill="#F0E0B0"/>
<path d="M92.5002 40.8555L92.3677 61.9692L112.119 69.4306L91.9981 75.829L91.0055 96.9198L78.7025 79.7605L58.3373 85.3339L70.8548 68.3305L59.261 50.6843L79.3004 57.3348L92.5002 40.8555Z" fill="#CBA258"/>
<path d="M22.6464 121.023L25.2906 133.645L38.0447 135.551L26.8578 141.966L28.9856 154.685L19.4275 146.029L7.98853 151.983L13.2682 140.217L4.07065 131.178L16.8918 132.563L22.6464 121.023Z" fill="#CBA258"/>
<path d="M213.187 194.697L213.93 204.897L223.753 207.745L214.281 211.604L214.609 221.827L208.011 214.011L198.39 217.481L203.785 208.792L197.512 200.714L207.443 203.159L213.187 194.697Z" fill="#F0E0B0"/>
</svg>
