<svg width="16" height="17" viewBox="0 0 16 17" fill="none" xmlns="http://www.w3.org/2000/svg">
<path fill-rule="evenodd" clip-rule="evenodd" d="M5.33752 2.36818C5.34549 2.3735 5.35348 2.37883 5.3615 2.38417L12.394 7.0725C12.5975 7.20813 12.7861 7.33388 12.931 7.45074C13.0823 7.5727 13.2605 7.74182 13.3631 7.98922C13.4987 8.31622 13.4987 8.68373 13.3631 9.01074C13.2605 9.25814 13.0823 9.42726 12.931 9.54921C12.7862 9.66607 12.5975 9.79181 12.394 9.92743L5.33754 14.6318C5.08882 14.7976 4.86516 14.9467 4.67539 15.0496C4.48548 15.1525 4.2248 15.2701 3.92055 15.2519C3.53139 15.2287 3.17188 15.0363 2.93668 14.7254C2.75279 14.4823 2.70605 14.2002 2.68634 13.9851C2.66665 13.7701 2.66667 13.5013 2.66669 13.2024L2.66669 3.8264C2.66669 3.81676 2.66669 3.80715 2.66669 3.79757C2.66667 3.49864 2.66665 3.22984 2.68634 3.01489C2.70605 2.79979 2.75279 2.51765 2.93668 2.27458C3.17188 1.96366 3.53139 1.77126 3.92055 1.74803C4.2248 1.72986 4.48548 1.84747 4.67539 1.95039C4.86516 2.05323 5.0888 2.20235 5.33752 2.36818Z" fill="white"/>
</svg>
