<svg width="349" height="26" viewBox="0 0 349 26" fill="none" xmlns="http://www.w3.org/2000/svg">
<path d="M202.33 8.88152V8.86888C202.33 7.30806 203.625 6 205.262 6C206.899 6 208.182 7.2891 208.182 8.85624V8.86888C208.182 10.4297 206.886 11.7378 205.249 11.7378C203.612 11.7378 202.33 10.4423 202.33 8.88152ZM207.776 8.86888V8.85624C207.776 7.49131 206.699 6.38547 205.262 6.38547C203.825 6.38547 202.736 7.51027 202.736 8.86888V8.88152C202.736 10.2401 203.818 11.3523 205.249 11.3523C206.68 11.3523 207.776 10.2275 207.776 8.86888ZM204.115 7.32702H205.449C205.823 7.32702 206.139 7.44076 206.332 7.63665C206.474 7.76935 206.571 7.96524 206.571 8.19905V8.21801C206.571 8.69194 206.248 8.96999 205.797 9.07741L206.719 10.2464H206.171L205.314 9.1406H204.553V10.2464H204.115V7.32702ZM205.41 8.76146C205.829 8.76146 206.119 8.57188 206.119 8.24329V8.23065C206.119 7.92101 205.862 7.72512 205.436 7.72512H204.56V8.76777H205.41V8.76146ZM133.12 6.39179H126.14V16.3065C126.14 19.5355 125.231 20.6667 123.349 20.6667C121.467 20.6667 120.675 19.4218 120.675 16.5972V6.39179H113.694V16.9321C113.694 22.733 117.194 26 123.407 26C129.621 26 133.12 22.8215 133.12 16.8752V6.3981V6.39179ZM38.9036 11.2701V6.3981H20.0448V11.2701H25.9486V25.6082H32.9997V11.2701H38.9036ZM50.7822 10.7773L49.0484 17.3555H52.5675L50.7822 10.7773ZM55.3196 25.6082L54.1402 22.0885H47.5144L46.2641 25.6082H39.2323L46.3672 6.3981H55.3003L62.3514 25.6082H55.3196ZM155.743 24.1106L153.629 19.1311C152.379 20.0537 151.122 20.8752 149.066 20.8752C146.301 20.8752 144.458 18.6446 144.458 15.921C144.458 13.1975 146.082 10.8531 148.956 10.8531C150.774 10.8531 152.359 11.7378 153.629 12.7235L155.711 7.8515C153.378 6.70142 151.045 6 147.835 6C141.905 6 137.406 9.97472 137.406 15.8578C137.406 22.0632 141.783 25.9937 148.035 25.9937C151.476 25.9937 153.893 25.2101 155.737 24.1106M179.79 25.6082L172.533 15.8641L178.965 6.3981H171.308L167.171 13.4313V6.3981H160.319V25.6082H167.171V18.6066L171.586 25.6082H179.784H179.79ZM8.24348 26C12.6843 26 17.2926 24.4455 17.2926 19.5292C17.2926 15.0995 13.4513 13.8926 10.4478 13.2607C8.18548 12.7804 7.10268 12.5592 7.10268 11.6746C7.10268 10.4992 8.62375 10.4044 9.4423 10.4044C11.4726 10.4044 13.3675 11.2196 14.9981 12.1927L16.8286 7.81359C14.4374 6.80253 11.537 6.00632 8.83645 6.00632C4.22809 6.00632 0.618749 8.19273 0.618749 12.5845C0.618749 16.1864 3.4031 17.5703 6.47749 18.316C8.60442 18.8341 9.96437 18.9858 9.96437 20.0221C9.96437 21.0585 8.92024 21.3555 7.90833 21.3555C5.66538 21.3555 3.53844 20.4013 2.21072 19.2891L0 23.5292C2.39119 25.0521 5.30444 26 8.24348 26ZM190.174 26C194.621 26 199.223 24.4455 199.223 19.5292C199.223 15.0995 195.382 13.8926 192.378 13.2607C190.116 12.7804 189.033 12.5592 189.033 11.6746C189.033 10.4992 190.554 10.4044 191.373 10.4044C193.403 10.4044 195.304 11.2196 196.928 12.1927L198.759 7.81359C196.368 6.80253 193.467 6.00632 190.76 6.00632C186.152 6.00632 182.543 8.19273 182.543 12.5845C182.543 16.1864 185.327 17.5703 188.401 18.316C190.528 18.8341 191.895 18.9858 191.895 20.0221C191.895 21.0585 190.851 21.3555 189.839 21.3555C187.596 21.3555 185.469 20.4013 184.141 19.2891L181.93 23.5292C184.321 25.0521 187.235 26 190.174 26ZM80.9331 18.4297C83.3307 17.5703 84.6327 15.207 84.6327 12.9953C84.6327 8.45814 81.4745 6.3981 76.9821 6.3981H66.3926V25.6082H73.1859V19.9084H74.9003L78.4323 25.6082H85.7606L80.9267 18.4297H80.9331ZM77.7556 13.0205C77.7556 14.278 76.9435 15.0111 75.6029 15.0111H73.1923V10.9984H75.6287C76.9177 10.9984 77.7556 11.643 77.7556 12.9637V13.0205ZM104.742 15.8009C107.294 15.2638 108.545 13.861 108.545 11.504C108.545 8.23697 106.044 6.3981 101.642 6.3981H90.4656V25.6082H101.197C106.379 25.6082 108.957 23.8199 108.957 20.1927C108.957 17.6904 107.346 16.0032 104.735 15.8009M97.1816 10.5624H99.6437C100.946 10.5624 101.79 11.1122 101.79 12.237V12.2875C101.79 13.3618 100.965 13.9874 99.6179 13.9874H97.1816V10.5624ZM101.887 19.6619C101.887 20.7931 101.049 21.4502 99.6695 21.4502H97.1816V17.8483H99.7017C101.029 17.8483 101.893 18.4234 101.893 19.6114V19.6619H101.887Z" fill="#1E3932"/>
<path d="M233.29 6.28182V11.2382H229.019V25H223.219V11.2382H218.948V6.28182H233.29ZM242.848 4.96363C241.478 4.96363 240.555 4.14636 240.555 2.69636C240.555 1.27272 241.478 0.349997 242.848 0.349997C244.272 0.349997 245.195 1.27272 245.195 2.69636C245.195 4.14636 244.272 4.96363 242.848 4.96363ZM248.991 4.96363C247.594 4.96363 246.645 4.14636 246.645 2.69636C246.645 1.27272 247.594 0.349997 248.991 0.349997C250.362 0.349997 251.285 1.27272 251.285 2.69636C251.285 4.14636 250.362 4.96363 248.991 4.96363ZM245.854 25.3691C241.478 25.3691 237.892 23.3655 237.892 18.3564V6.28182H243.692V17.3282C243.692 19.0682 244.219 20.1227 245.854 20.1227C247.488 20.1227 248.095 19.0682 248.095 17.3282V6.28182H253.895V18.3564C253.895 23.3655 250.362 25.3691 245.854 25.3691ZM269.746 25L266.292 19.1473H265.502V25H259.702V6.28182H268.428C273.332 6.28182 275.942 8.54909 275.942 12.5036C275.942 15.3509 274.623 17.5391 272.04 18.5409L276.416 25H269.746ZM265.502 11.1327V15.4036H267.057C269.008 15.4036 269.799 14.5073 269.799 13.11C269.799 11.7127 268.955 11.1327 267.057 11.1327H265.502ZM291.535 25L287.738 19.3055L286.868 20.4127V25H281.068V6.28182H286.868V13.3736L291.746 6.28182H298.099L291.825 14.7445L298.706 25H291.535ZM305.722 4.99C304.087 4.99 302.927 4.14636 302.927 2.72273C302.927 1.27272 304.087 0.29727 305.722 0.29727C307.382 0.29727 308.516 1.27272 308.516 2.72273C308.516 4.14636 307.382 4.99 305.722 4.99ZM302.822 25V6.28182H308.622V25H302.822ZM330.323 6.28182L324.207 18.0927V25H318.407V18.1455L312.29 6.28182H318.67L321.65 12.3982L324.629 6.28182H330.323ZM345.909 11.1327H339.924V13.2945H345.065V17.5655H339.924V20.1491H345.909V25H334.124V6.28182H345.909V11.1327Z" fill="#1E3932"/>
</svg>
